<svg width="37" height="36" viewBox="0 0 37 36" fill="none" xmlns="http://www.w3.org/2000/svg">
<g clip-path="url(#clip0_42_124)">
<g clip-path="url(#clip1_42_124)">
<g clip-path="url(#clip2_42_124)">
<mask id="mask0_42_124" style="mask-type:luminance" maskUnits="userSpaceOnUse" x="0" y="0" width="37" height="36">
<path d="M36.6318 0H0.631836V36H36.6318V0Z" fill="white"/>
</mask>
<g mask="url(#mask0_42_124)">
<path d="M18.9712 10.34C19.311 10.34 19.5581 10.618 19.5581 10.9269V12.1933C20.3612 12.2242 20.9789 12.3786 21.504 12.5948C21.8438 12.7184 21.9982 13.1199 21.8747 13.4597C21.782 13.7377 21.504 13.8921 21.226 13.8921C21.1334 13.8921 21.0407 13.8612 20.948 13.8304C20.5156 13.645 19.8978 13.4906 19.1565 13.4906C17.6739 13.4906 17.087 14.3863 17.087 15.1585C17.087 16.1779 17.7975 16.6721 19.4963 17.3825C21.504 18.1856 22.4924 19.2049 22.4924 20.9346C22.4924 22.479 21.4114 23.8999 19.4345 24.2396V25.6605C19.4345 26.0002 19.1565 26.2473 18.8477 26.2473H18.8168C18.477 26.2473 18.2299 25.9694 18.2299 25.6605V24.3014C17.365 24.3014 16.5002 24.0852 15.8206 23.7763C15.5117 23.6219 15.3573 23.2512 15.45 22.9114C15.5426 22.6335 15.8206 22.4481 16.0986 22.4481C16.1913 22.4481 16.2839 22.479 16.3766 22.5099C16.9944 22.7879 17.7357 22.9732 18.5079 22.9732C19.8978 22.9732 20.8245 22.1701 20.8245 21.089C20.8245 20.008 20.0832 19.3593 18.6314 18.7724C16.6546 18.0002 15.45 17.1045 15.45 15.4057C15.45 13.7995 16.5928 12.564 18.3843 12.286V10.9269C18.3534 10.5871 18.6314 10.34 18.9712 10.34ZM18.9712 9.10449C17.9519 9.10449 17.1488 9.93847 17.1488 10.9269V11.3284C15.3573 11.9771 14.2144 13.5215 14.2144 15.4057C14.2144 18.34 16.9944 19.452 18.199 19.9153C19.6199 20.4713 19.6199 20.8728 19.6199 21.0582C19.6199 21.5524 19.033 21.7068 18.5388 21.7068C17.8592 21.7068 17.2724 21.5215 16.9017 21.3362C16.6546 21.2126 16.3766 21.1508 16.0986 21.1508C15.2955 21.1508 14.5542 21.6759 14.3071 22.4172C13.9673 23.3748 14.3998 24.3941 15.2955 24.8265C15.8206 25.0736 16.4075 25.2589 16.9944 25.3516V25.5987C16.9944 26.618 17.8283 27.4211 18.8168 27.4211H18.8477C19.867 27.4211 20.67 26.5871 20.67 25.5987V25.1354C22.5233 24.4558 23.728 22.8497 23.728 20.9037C23.728 18.0929 21.5658 16.8883 19.9596 16.2087C18.3226 15.5292 18.3226 15.313 18.3226 15.1585C18.3226 14.7879 18.8477 14.7261 19.1565 14.7261C19.6507 14.7261 20.0832 14.8188 20.4847 14.9732C20.7318 15.0659 20.9789 15.1277 21.226 15.1277C22.0291 15.1277 22.7395 14.6335 23.0175 13.8921C23.3882 12.9346 22.894 11.8226 21.9673 11.452C21.5967 11.2975 21.226 11.174 20.7936 11.1122V10.9269C20.7936 9.90758 19.9596 9.10449 18.9712 9.10449Z" fill="#194486"/>
<path d="M18.6318 35C28.0206 35 35.6318 27.3888 35.6318 18C35.6318 8.61116 28.0206 1 18.6318 1C9.243 1 1.63184 8.61116 1.63184 18C1.63184 27.3888 9.243 35 18.6318 35Z" stroke="#194486" stroke-width="2" stroke-linecap="round" stroke-linejoin="round"/>
</g>
</g>
</g>
</g>
<defs>
<clipPath id="clip0_42_124">
<rect width="37" height="36" fill="white"/>
</clipPath>
<clipPath id="clip1_42_124">
<rect width="37" height="36" fill="white"/>
</clipPath>
<clipPath id="clip2_42_124">
<rect width="37" height="36" fill="white"/>
</clipPath>
</defs>
</svg>
