<svg width="35" height="34" viewBox="0 0 35 34" fill="none" xmlns="http://www.w3.org/2000/svg">
<g clip-path="url(#clip0_42_86)">
<g clip-path="url(#clip1_42_86)">
<g clip-path="url(#clip2_42_86)">
<mask id="mask0_42_86" style="mask-type:luminance" maskUnits="userSpaceOnUse" x="0" y="0" width="35" height="34">
<path d="M34.6318 0.5H0.631836V33.5H34.6318V0.5Z" fill="white"/>
</mask>
<g mask="url(#mask0_42_86)">
<path d="M2.2334 8.20072V2.01544C2.2334 1.73624 2.46964 1.5 2.74884 1.5H8.93412" stroke="#194486" stroke-width="2" stroke-linecap="round" stroke-linejoin="round"/>
<path d="M8.93412 32.4908H2.74884C2.46965 32.4908 2.2334 32.2545 2.2334 31.9753V25.79" stroke="#194486" stroke-width="2" stroke-linecap="round" stroke-linejoin="round"/>
<path d="M26.5234 1.5H32.7087C32.9879 1.5 33.2241 1.73624 33.2241 2.01544V8.20072" stroke="#194486" stroke-width="2" stroke-linecap="round" stroke-linejoin="round"/>
<path d="M33.2241 25.79V31.9753C33.2241 32.2545 32.9879 32.4908 32.7087 32.4908H26.5234" stroke="#194486" stroke-width="2" stroke-linecap="round" stroke-linejoin="round"/>
<path d="M28.1991 22.9551C28.1991 24.5014 28.1991 26.0692 28.1991 27.6155C26.5454 27.6155 24.0755 27.6155 22.4004 27.6155C22.4004 27.1001 22.4004 26.5846 22.4004 26.0262C22.8943 26.0262 23.4957 26.0262 23.9896 26.0262C24.0326 25.4678 23.9467 24.9524 23.9896 24.437C24.4621 24.437 24.9561 24.437 25.493 24.437C25.493 24.9954 25.493 25.4893 25.493 25.9833C25.8581 25.9833 26.1588 25.9833 26.5239 25.9833" stroke="#194486" stroke-linecap="round" stroke-linejoin="round"/>
<path d="M28.1992 16.748C28.1992 17.2635 28.1992 17.7575 28.1992 18.2729" stroke="#194486" stroke-linecap="round" stroke-linejoin="round"/>
<path d="M28.1989 21.4517C28.1989 20.9363 28.1989 20.8504 28.1989 20.335H27.2539" stroke="#194486" stroke-linecap="round" stroke-linejoin="round"/>
<path fill-rule="evenodd" clip-rule="evenodd" d="M7.00195 27.5508C7.00195 24.8017 7.00195 22.0742 7.00195 19.3252C9.75096 19.3252 12.4785 19.3252 15.2275 19.3252C15.2275 22.0527 15.2275 24.7803 15.2275 27.5508C12.5214 27.5508 9.79391 27.5508 7.00195 27.5508Z" stroke="#194486" stroke-linecap="round" stroke-linejoin="round"/>
<path fill-rule="evenodd" clip-rule="evenodd" d="M15.3779 14.6006C12.6289 14.6006 9.90135 14.6006 7.15234 14.6006C7.15234 11.8515 7.15234 9.12401 7.15234 6.375C9.87987 6.375 12.6074 6.375 15.3779 6.375C15.3779 9.10254 15.3779 11.8301 15.3779 14.6006Z" stroke="#194486" stroke-linecap="round" stroke-linejoin="round"/>
<path fill-rule="evenodd" clip-rule="evenodd" d="M28.3057 14.6006C25.5567 14.6006 22.8291 14.6006 20.0801 14.6006C20.0801 11.8515 20.0801 9.12401 20.0801 6.375C22.8077 6.375 25.5352 6.375 28.3057 6.375C28.3057 9.10254 28.3057 11.8301 28.3057 14.6006Z" stroke="#194486" stroke-linecap="round" stroke-linejoin="round"/>
<path d="M18.8991 23.2988C18.5125 23.2988 18.1259 23.2988 17.7393 23.2988C17.7393 24.3512 17.7393 24.9525 17.7393 26.0478C18.2333 26.0264 18.7272 26.0049 19.2212 25.9834H19.1997C19.1997 26.4988 19.1997 27.0143 19.1997 27.5727" stroke="#194486" stroke-linecap="round" stroke-linejoin="round"/>
<path d="M18.1045 16.9639C18.6415 16.9639 19.1354 16.9639 19.6294 16.9639C19.6294 17.4793 19.6294 18.7464 19.6294 19.3263C19.1569 19.3263 18.6629 19.3263 18.1475 19.3263C18.1475 20.035 18.1475 20.5075 18.1475 21.2163C18.6415 21.2163 19.1354 21.2163 19.6509 21.2163" stroke="#194486" stroke-linecap="round" stroke-linejoin="round"/>
<path d="M7.1084 16.8994C8.82653 16.8994 10.5232 16.8994 12.2628 16.8994" stroke="#194486" stroke-linecap="round" stroke-linejoin="round"/>
<path d="M17.8906 6.86914C17.8906 7.90002 17.8906 8.88795 17.8906 9.91883" stroke="#194486" stroke-linecap="round" stroke-linejoin="round"/>
<path d="M17.8682 12.1738C17.8682 12.3027 17.8682 12.4101 17.8682 12.5389" stroke="#194486" stroke-linecap="round" stroke-linejoin="round"/>
<path d="M25.7075 22.354C25.2135 22.3755 24.7195 22.311 24.2256 22.354" stroke="#194486" stroke-linecap="round" stroke-linejoin="round"/>
<path d="M13.8301 16.877C14.3241 16.877 14.8181 16.877 15.3335 16.877" stroke="#194486" stroke-linecap="round" stroke-linejoin="round"/>
<path d="M22.3789 22.5684V24.2866" stroke="#194486" stroke-linecap="round" stroke-linejoin="round"/>
<path d="M22.3789 20.0986V20.8288" stroke="#194486" stroke-linecap="round" stroke-linejoin="round"/>
<path fill-rule="evenodd" clip-rule="evenodd" d="M22.6797 8.95215C23.7105 8.95215 24.6985 8.95215 25.7293 8.95215C25.7293 9.98303 25.7293 11.0139 25.7293 12.0663C24.7199 12.0663 23.7105 12.0663 22.6797 12.0663C22.6797 11.0569 22.6797 10.026 22.6797 8.95215Z" stroke="#194486" stroke-linecap="round" stroke-linejoin="round"/>
<path fill-rule="evenodd" clip-rule="evenodd" d="M12.6707 21.9023C12.6707 22.9332 12.6707 23.9641 12.6707 24.995C11.6613 24.995 10.6519 24.995 9.59961 24.995C9.59961 23.9641 9.59961 22.9332 9.59961 21.9023C10.6305 21.9023 11.6184 21.9023 12.6707 21.9023Z" stroke="#194486" stroke-linecap="round" stroke-linejoin="round"/>
<path fill-rule="evenodd" clip-rule="evenodd" d="M9.75 8.95215C10.7809 8.95215 11.7688 8.95215 12.7996 8.95215C12.7996 10.0045 12.7996 11.0139 12.7996 12.0663C11.7902 12.0663 10.7809 12.0663 9.75 12.0663C9.75 11.0569 9.75 10.026 9.75 8.95215Z" stroke="#194486" stroke-linecap="round" stroke-linejoin="round"/>
<path d="M21.4551 16.8564H23.3236H24.8485V20.2282" stroke="#194486" stroke-linecap="round" stroke-linejoin="round"/>
</g>
</g>
</g>
</g>
<defs>
<clipPath id="clip0_42_86">
<rect width="35" height="33" fill="white" transform="translate(0 0.5)"/>
</clipPath>
<clipPath id="clip1_42_86">
<rect width="35" height="33" fill="white" transform="translate(0 0.5)"/>
</clipPath>
<clipPath id="clip2_42_86">
<rect width="35" height="33" fill="white" transform="translate(0 0.5)"/>
</clipPath>
</defs>
</svg>
